<?xml version="1.0" encoding="iso-8859-1"?>
<!-- Generator: Adobe Illustrator 19.0.0, SVG Export Plug-In . SVG Version: 6.00 Build 0)  -->
<svg version="1.1" id="Capa_1" xmlns="http://www.w3.org/2000/svg" xmlns:xlink="http://www.w3.org/1999/xlink" x="0px" y="0px"
	 viewBox="0 0 472 472" style="enable-background:new 0 0 472 472;" xml:space="preserve">
<g>
	<path style="fill:#63C8CD;" d="M32,312v160h40h40V312h56l56-56l-24-24l-48,48H32c-17.673,0-32,14.327-32,32v56h32V312z"/>
	<circle style="fill:#63C8CD;" cx="72" cy="240" r="40"/>
</g>
<path style="fill:#F7D04F;" d="M472,0L150.32,25.52L224,96l8,88l48-24l40,64L472,0z"/>
<path style="fill:#5A5A60;" d="M195.2,202.48c-4.734-1.755-9.57-3.224-14.48-4.4l4-15.52c6.64,1.76,11.76,3.28,16,4.88L195.2,202.48
	z M165.28,194.48l-8.64-2.48l-7.52-2.4l5.28-15.12l6.8,2.16c2.16,0.64,4.8,1.28,8,2L165.28,194.48z M133.28,183.12
	c-4.742-2.554-9.194-5.611-13.28-9.12l-1.12-0.96l10.48-12.08l0.8,0.64c3.379,2.754,7.024,5.166,10.88,7.2L133.28,183.12z
	 M106.56,159.12c-3.394-5.438-5.653-11.506-6.64-17.84l16-2.4c0.656,4.264,2.181,8.349,4.48,12L106.56,159.12z M116.64,126.48
	l-15.36-4.4c1.71-5.809,4.214-11.355,7.44-16.48l13.68,8c-2.454,3.967-4.364,8.245-5.68,12.72L116.64,126.48z M131.2,101.76
	l-12.56-9.92l1.92-2.4c2.48-3.04,5.68-6.64,9.28-10.24l11.36,11.2c-3.2,3.28-6,6.4-8,9.12L131.2,101.76z M152.48,80L142,67.92
	c4.331-3.828,8.959-7.305,13.84-10.4l8,13.6C159.855,73.817,156.059,76.784,152.48,80z"/>
<path style="fill:#EF9F35;" d="M232,184l32-56L472,0L224,96L232,184z"/>
<path style="fill:#5A5A60;" d="M280,160l-16-32l-32,56L280,160z"/>
<g>
</g>
<g>
</g>
<g>
</g>
<g>
</g>
<g>
</g>
<g>
</g>
<g>
</g>
<g>
</g>
<g>
</g>
<g>
</g>
<g>
</g>
<g>
</g>
<g>
</g>
<g>
</g>
<g>
</g>
</svg>
