<?xml version="1.0" encoding="iso-8859-1"?>
<!-- Generator: Adobe Illustrator 19.0.0, SVG Export Plug-In . SVG Version: 6.00 Build 0)  -->
<svg xmlns="http://www.w3.org/2000/svg" xmlns:xlink="http://www.w3.org/1999/xlink" version="1.1" id="Capa_1" x="0px" y="0px" viewBox="0 0 462.5 462.5" style="enable-background:new 0 0 462.5 462.5;" xml:space="preserve" width="512" height="512">
<g>
	<polygon style="fill:#6DA8D6;" points="204.147,113.811 150.024,163.811 462.5,163.813  "/>
	<polygon style="fill:#98D9D5;" points="150.024,163.811 204.147,213.811 462.5,163.813  "/>
	<polygon style="fill:#C1E8E6;" points="462.5,163.813 173.413,321.312 204.147,213.812  "/>
	<polygon style="fill:#C1E8E6;" points="462.5,163.813 204.147,113.812 173.413,6.312  "/>
	<path style="fill:#6DA8D6;" d="M14.795,365.233c-3.114,0-6.023-1.954-7.092-5.064c-1.727-5.024-3.186-10.207-4.335-15.402   c-0.895-4.045,1.658-8.049,5.702-8.944c4.036-0.894,8.048,1.657,8.943,5.702c1.028,4.646,2.332,9.278,3.875,13.77   c1.346,3.917-0.738,8.185-4.655,9.53C16.425,365.102,15.603,365.233,14.795,365.233z"/>
	<path style="fill:#6DA8D6;" d="M7.501,320.558C3.32,320.537-0.02,317.162,0,313.02c0.027-5.301,0.319-10.643,0.87-15.877   c0.434-4.119,4.133-7.114,8.244-6.674c4.12,0.434,7.107,4.124,6.674,8.244c-0.499,4.739-0.764,9.578-0.788,14.383   C14.979,317.225,11.625,320.558,7.501,320.558z"/>
	<path style="fill:#6DA8D6;" d="M14.526,275.791c-0.753,0-1.519-0.114-2.274-0.354c-3.947-1.255-6.13-5.473-4.875-9.42   c1.607-5.054,3.488-10.07,5.591-14.911c1.651-3.798,6.069-5.539,9.868-3.89c3.799,1.65,5.541,6.068,3.89,9.868   c-1.9,4.373-3.601,8.908-5.054,13.478C20.657,273.753,17.706,275.791,14.526,275.791z"/>
	<path style="fill:#6DA8D6;" d="M34.641,235.186c-1.488,0-2.991-0.442-4.302-1.361c-3.391-2.38-4.21-7.057-1.831-10.447   c3.034-4.324,6.325-8.546,9.782-12.548c2.707-3.134,7.443-3.482,10.578-0.773c3.135,2.707,3.481,7.443,0.773,10.578   c-3.129,3.623-6.108,7.444-8.855,11.358C39.327,234.072,37.003,235.186,34.641,235.186z"/>
	<path style="fill:#6DA8D6;" d="M65.954,202.422c-2.244,0-4.463-1.002-5.941-2.916c-2.532-3.278-1.927-7.988,1.352-10.52   c4.185-3.232,8.58-6.286,13.063-9.077c3.517-2.189,8.142-1.113,10.331,2.403c2.189,3.517,1.113,8.142-2.403,10.331   c-4.057,2.525-8.035,5.289-11.822,8.214C69.168,201.912,67.554,202.422,65.954,202.422z"/>
	<path style="fill:#6DA8D6;" d="M111.806,452.909c-0.564,0-1.137-0.064-1.71-0.198c-5.175-1.207-10.342-2.725-15.359-4.512   c-3.902-1.391-5.938-5.681-4.548-9.582c1.39-3.902,5.679-5.936,9.582-4.549c4.486,1.599,9.106,2.956,13.732,4.035   c4.034,0.94,6.541,4.974,5.601,9.007C118.296,450.571,115.213,452.909,111.806,452.909z"/>
	<path style="fill:#6DA8D6;" d="M70.064,435.33c-1.38,0-2.776-0.381-4.026-1.178c-4.484-2.86-8.853-6.003-12.983-9.342   c-3.222-2.604-3.723-7.325-1.12-10.547c2.604-3.223,7.326-3.725,10.547-1.119c3.698,2.987,7.608,5.801,11.622,8.361   c3.492,2.228,4.518,6.864,2.29,10.356C74.963,434.105,72.539,435.33,70.064,435.33z"/>
	<path style="fill:#6DA8D6;" d="M36.498,404.959c-2.217,0-4.412-0.978-5.892-2.854c-3.293-4.173-6.385-8.575-9.189-13.085   c-2.187-3.518-1.108-8.143,2.409-10.329c3.519-2.188,8.144-1.107,10.329,2.409c2.51,4.036,5.277,7.977,8.225,11.712   c2.566,3.251,2.011,7.967-1.24,10.533C39.764,404.433,38.125,404.959,36.498,404.959z"/>
	<path style="fill:#6DA8D6;" d="M142.623,456.189c-4.142,0-7.5-3.357-7.5-7.5s3.358-7.5,7.5-7.5c4.488,0,9.01-0.268,13.44-0.794   c4.117-0.489,7.844,2.448,8.333,6.562c0.489,4.113-2.448,7.844-6.562,8.333C152.819,455.886,147.701,456.189,142.623,456.189z"/>
	<path style="fill:#6DA8D6;" d="M186.231,448.014c-2.999,0-5.83-1.811-6.987-4.771c-1.508-3.857,0.397-8.208,4.255-9.716   c4.384-1.714,8.705-3.727,12.842-5.982c3.637-1.982,8.192-0.642,10.175,2.995s0.642,8.191-2.995,10.175   c-4.691,2.558-9.59,4.84-14.562,6.783C188.062,447.848,187.139,448.014,186.231,448.014z"/>
	<path style="fill:#6DA8D6;" d="M224.574,424.145c-2.006,0-4.007-0.8-5.484-2.382c-2.827-3.028-2.663-7.774,0.365-10.601   c3.454-3.225,6.739-6.7,9.764-10.333c2.651-3.184,7.38-3.613,10.563-0.964c3.183,2.651,3.615,7.38,0.964,10.563   c-3.425,4.112-7.144,8.048-11.055,11.698C228.244,423.477,226.407,424.145,224.574,424.145z"/>
	<path style="fill:#6DA8D6;" d="M251.26,387.636c-1.076,0-2.167-0.232-3.204-0.723c-3.744-1.772-5.343-6.244-3.57-9.988   c2.021-4.271,3.788-8.712,5.25-13.202c1.284-3.938,5.517-6.094,9.454-4.808c3.938,1.282,6.091,5.516,4.809,9.454   c-1.659,5.092-3.662,10.13-5.955,14.974C256.762,386.05,254.068,387.636,251.26,387.636z"/>
	<path style="fill:#6DA8D6;" d="M105.563,180.463c-3.05,0-5.916-1.873-7.036-4.901c-1.437-3.885,0.549-8.198,4.434-9.635   c4.964-1.836,10.075-3.436,15.191-4.754c4.013-1.037,8.101,1.38,9.135,5.391c1.034,4.011-1.38,8.101-5.391,9.135   c-4.624,1.191-9.245,2.638-13.733,4.297C107.305,180.313,106.426,180.463,105.563,180.463z"/>
</g>















</svg>
