<svg xmlns="http://www.w3.org/2000/svg" height="512pt" version="1.1" viewBox="0 -85 512.00099 512" width="512pt">
<g id="surface1">
<path d="M 436.382812 0 L 0 79.949219 L 100.601562 145.90625 Z M 436.382812 0 " style=" stroke:none;fill-rule:nonzero;fill:rgb(32.941176%,35.294118%,76.470588%);fill-opacity:1;" />
<path d="M 213.195312 217.191406 C 211.195312 218.523438 119.636719 265.144531 119.636719 265.144531 L 135.910156 167.226562 Z M 213.195312 217.191406 " style=" stroke:none;fill-rule:nonzero;fill:rgb(25.098039%,29.019608%,63.529412%);fill-opacity:1;" />
<path d="M 135.910156 167.226562 L 436.382812 0 L 279.816406 341.113281 Z M 135.910156 167.226562 " style=" stroke:none;fill-rule:nonzero;fill:rgb(32.941176%,35.294118%,76.470588%);fill-opacity:1;" />
<path d="M 280.152344 28.621094 L 280.152344 67.886719 L 436.382812 0 Z M 280.152344 28.621094 " style=" stroke:none;fill-rule:nonzero;fill:rgb(25.098039%,29.019608%,63.529412%);fill-opacity:1;" />
<path d="M 280.152344 86.949219 L 280.152344 340.386719 L 436.382812 0 Z M 280.152344 86.949219 " style=" stroke:none;fill-rule:nonzero;fill:rgb(25.098039%,29.019608%,63.529412%);fill-opacity:1;" />
<path d="M 100.601562 145.90625 L 119.636719 265.144531 L 135.910156 167.226562 L 436.382812 0 Z M 100.601562 145.90625 " style=" stroke:none;fill-rule:nonzero;fill:rgb(30.980392%,46.666667%,87.058824%);fill-opacity:1;" />
<path d="M 280.152344 67.886719 L 280.152344 86.949219 L 436.382812 0 Z M 280.152344 67.886719 " style=" stroke:none;fill-rule:nonzero;fill:rgb(32.941176%,35.294118%,76.470588%);fill-opacity:1;" />
<path d="M 420.980469 334.035156 L 408.199219 321.277344 L 389.28125 302.3125 C 385.027344 298.042969 382.695312 292.378906 382.707031 286.359375 C 382.722656 280.339844 385.082031 274.6875 389.351562 270.445312 L 390.3125 269.539062 C 399.042969 261.808594 412.410156 262.035156 420.871094 270.207031 L 421.050781 270.027344 C 429.832031 261.25 444.113281 261.25 452.890625 270.027344 C 461.671875 278.808594 461.671875 293.09375 452.894531 301.871094 L 433.5625 321.207031 Z M 420.980469 334.035156 " style=" stroke:none;fill-rule:nonzero;fill:rgb(98.823529%,24.313725%,50.588235%);fill-opacity:1;" />
<path d="M 420.980469 334.035156 C 420.980469 334.035156 420.929688 270.191406 420.871094 270.207031 L 421.050781 270.023438 C 429.832031 261.25 444.113281 261.25 452.894531 270.023438 C 461.671875 278.808594 461.671875 293.09375 452.898438 301.871094 L 433.5625 321.203125 Z M 420.980469 334.035156 " style=" stroke:none;fill-rule:nonzero;fill:rgb(80%,8.235294%,39.215686%);fill-opacity:1;" />
<path d="M 473.5 246.648438 L 460.71875 233.894531 L 441.800781 214.929688 C 437.546875 210.660156 435.214844 204.996094 435.230469 198.976562 C 435.242188 192.957031 437.601562 187.304688 441.871094 183.058594 L 442.835938 182.15625 C 451.566406 174.425781 464.929688 174.652344 473.390625 182.824219 L 473.574219 182.640625 C 482.351562 173.867188 496.636719 173.867188 505.414062 182.640625 C 514.195312 191.425781 514.195312 205.707031 505.417969 214.488281 L 486.082031 233.820312 Z M 473.5 246.648438 " style=" stroke:none;fill-rule:nonzero;fill:rgb(98.823529%,24.313725%,50.588235%);fill-opacity:1;" />
<path d="M 473.5 246.648438 C 473.5 246.648438 473.449219 182.804688 473.390625 182.820312 L 473.574219 182.640625 C 482.351562 173.863281 496.636719 173.863281 505.414062 182.640625 C 514.195312 191.425781 514.195312 205.707031 505.417969 214.484375 L 486.082031 233.820312 Z M 473.5 246.648438 " style=" stroke:none;fill-rule:nonzero;fill:rgb(80%,8.235294%,39.215686%);fill-opacity:1;" />
</g>
</svg>